<?xml version="1.0" standalone="no"?>
<!DOCTYPE svg PUBLIC "-//W3C//DTD SVG 20010904//EN"
"http://www.w3.org/TR/2001/REC-SVG-20010904/DTD/svg10.dtd">
<svg version="1.0" xmlns="http://www.w3.org/2000/svg"
width="32.000000pt" height="32.000000pt" viewBox="0 0 32.000000 32.000000"
preserveAspectRatio="xMidYMid meet">
<metadata>
Created by potrace 1.16, written by Peter Selinger 2001-2019
</metadata>
<g transform="translate(0.000000,32.000000) scale(0.100000,-0.100000)"
fill="#000000" stroke="none">
<path d="M86 289 c-51 -40 -16 -95 42 -65 16 8 34 11 41 6 18 -10 5 -30 -19
-30 -34 0 -45 -52 -18 -86 5 -7 3 -14 -7 -18 -18 -6 -20 -47 -3 -64 19 -19 56
-14 68 9 9 16 8 26 -5 45 -13 20 -14 28 -4 40 6 8 17 14 23 14 7 0 22 10 34
23 25 26 29 82 9 108 -33 43 -117 53 -161 18z"/>
</g>
</svg>
